<?xml version="1.0" encoding="UTF-8"?>
<svg width="64px" height="64px" viewBox="0 0 64 64" version="1.1" xmlns="http://www.w3.org/2000/svg" xmlns:xlink="http://www.w3.org/1999/xlink">
    <!-- Generator: Sketch 51.1 (57501) - http://www.bohemiancoding.com/sketch -->
    <title>SVG/Beacon/3</title>
    <desc>Created with Sketch.</desc>
    <defs>
        <linearGradient x1="0.00384066295%" y1="49.9819998%" x2="100.003343%" y2="49.9819998%" id="linearGradient-1">
            <stop stop-color="#E55133" offset="0%"></stop>
            <stop stop-color="#DF2B61" offset="34%"></stop>
            <stop stop-color="#DE266B" offset="69%"></stop>
            <stop stop-color="#D21B81" offset="100%"></stop>
        </linearGradient>
    </defs>
    <g id="SVG/Beacon/3" stroke="none" stroke-width="1" fill="none" fill-rule="evenodd">
        <path d="M32,64 C14.326888,64 0,49.673112 0,32 C0,14.326888 14.326888,0 32,0 C49.673112,0 64,14.326888 64,32 C64,49.673112 49.673112,64 32,64 Z M47.6444444,18.4888889 C49.2153877,18.4888889 50.4888889,17.2153877 50.4888889,15.6444444 C50.4888889,14.0735012 49.2153877,12.8 47.6444444,12.8 C46.0735012,12.8 44.8,14.0735012 44.8,15.6444444 C44.8,17.2153877 46.0735012,18.4888889 47.6444444,18.4888889 Z M38.7674074,26.9155556 L32,20.1481481 L30.8148148,20.1481481 L30.8148148,29.1437037 L25.3748148,23.7037037 L23.7037037,25.3748148 L30.3288889,32 L23.7037037,38.6251852 L25.3748148,40.2962963 L30.8148148,34.8562963 L30.8148148,43.8518519 L32,43.8518519 L38.7674074,37.0844444 L33.6711111,32 L38.7674074,26.9155556 Z M33.1851852,24.6874074 L35.4133333,26.9155556 L33.1851852,29.1437037 L33.1851852,24.6874074 Z M35.4133333,37.0844444 L33.1851852,39.3125926 L33.1851852,34.8562963 L35.4133333,37.0844444 Z" id="Combined-Shape" fill="url(#linearGradient-1)"></path>
    </g>
</svg>