<?xml version="1.0" encoding="UTF-8"?>
<svg width="64px" height="64px" viewBox="0 0 64 64" version="1.1" xmlns="http://www.w3.org/2000/svg" xmlns:xlink="http://www.w3.org/1999/xlink">
    <!-- Generator: Sketch 51.1 (57501) - http://www.bohemiancoding.com/sketch -->
    <title>SVG/Dashboard</title>
    <desc>Created with Sketch.</desc>
    <defs>
        <linearGradient x1="0.00384066295%" y1="49.9819998%" x2="100.003343%" y2="49.9819998%" id="linearGradient-1">
            <stop stop-color="#E55133" offset="0%"></stop>
            <stop stop-color="#DF2B61" offset="34%"></stop>
            <stop stop-color="#DE266B" offset="69%"></stop>
            <stop stop-color="#D21B81" offset="100%"></stop>
        </linearGradient>
    </defs>
    <g id="SVG/Dashboard" stroke="none" stroke-width="1" fill="none" fill-rule="evenodd">
        <path d="M24,22 L64,22 L64,60 C64,62.209139 62.209139,64 60,64 L24,64 L24,22 Z" id="Shape" fill="url(#linearGradient-1)"></path>
        <path d="M4,0 L60,0 C62.209139,-4.05812251e-16 64,1.790861 64,4 L64,18 L0,18 L0,4 C-2.705415e-16,1.790861 1.790861,4.05812251e-16 4,0 Z" id="Shape" fill="url(#linearGradient-1)"></path>
        <path d="M0,22 L20,22 L20,64 L4,64 C1.790861,64 2.705415e-16,62.209139 0,60 L0,22 Z" id="Shape" fill="url(#linearGradient-1)"></path>
    </g>
</svg>