<?xml version="1.0" encoding="UTF-8"?>
<svg width="352px" height="438px" viewBox="0 0 352 438" version="1.1" xmlns="http://www.w3.org/2000/svg" xmlns:xlink="http://www.w3.org/1999/xlink">
    <!-- Generator: Sketch 51.1 (57501) - http://www.bohemiancoding.com/sketch -->
    <title>logo/monar</title>
    <desc>Created with Sketch.</desc>
    <defs>
        <path d="M90.9769203,437.94 L86.0586647,437.94 C61.9391395,436.733429 44.0320378,417.478037 44.013,392.787 C43.992,365.582 63.236,346.879 91.084,347.039 C101.743,347.1 101.77,347.111 105.971,337.139 C112.185,322.389 118.27,307.583 124.607,292.887 C126.252,289.07 126.098,286.716 122.44,283.861 C81.741,252.093 74.918,195.809 106.821,155.178 C109.539,151.717 109.085,149.424 106.703,146.425 C89.941,125.318 73.169,104.218 56.594,82.964 C54.003,79.642 51.381,80.508 48.231,81.128 C23.995235,85.8972718 1.37181771,68.1565297 0.06,44.4142651 L0.06,40.0517266 C1.15981584,20.0854514 17.311037,2.52547823 36.247,0.93 C55.727,-0.712 75,12.767 78.925,31.19 C81.489,43.225 79.747,54.752 72.451,64.921 C70.249,67.989 69.98,70.041 72.433,73.11 C88.868,93.67 105.2,114.314 121.37,135.083 C124.347,138.907 126.504,136.93 129.293,135.277 C163.794,114.814 208.152,117.928 237.499,142.812 C276.912,176.231 279.566,238.754 242.848,275.098 C238.606,279.296 238.461,281.825 242.13,286.374 C259.972,308.501 277.561,330.835 295.009,353.274 C297.797,356.859 300.568,357.559 304.757,356.774 C327.574,352.5 348.501,367.686 351.249,390.308 C354.031,413.211 336.536,434.67 313.675,435.281 C299.08,435.67 286.96,429.492 279.01,416.927 C270.294,403.153 270.562,388.737 279.124,375.173 C282.656,369.577 281.944,366.339 278.15,361.633 C260.442,339.667 243.013,317.476 225.648,295.238 C223.142,292.029 221.019,291.178 217.178,292.957 C195.223,303.127 172.525,304.273 149.424,297.59 C145.122,296.346 142.835,297.118 141.12,301.329 C134.207,318.298 127.201,335.232 119.934,352.051 C118.297,355.839 120.448,357.317 122.513,359.453 C135.496,372.879 139.702,394.017 132.316,410.458 C124.293441,428.314411 109.833935,437.099663 90.9769203,437.94 Z M313.804,421.34 C327.535,421.223 338.653,410.07 338.645,396.42 C338.635,381.896 325.947,369.907 310.601,369.918 C296.873,369.93 285.742,380.988 285.667,394.69 C285.589,408.741 299.024,421.466 313.804,421.34 Z M236.246,211.556 C236.502,207.723 235.865,203.147 234.913,198.606 C225.177,152.181 173.158,134.485 138.21,165.704 C116.69,184.928 113.211,224.915 131.11,249.081 C144.33,266.929 162.354,275.511 184.278,272.906 C215.671,269.175 236.335,244.343 236.246,211.556 Z M119.547,392.76 C119.828,375.375 106.13,361.056 89.381,361.223 C72.842,361.388 60.452,374.699 60.486,392.263 C60.522,410.304 72.805,423.145 90.004,423.124 C106.837,423.103 119.263,410.331 119.547,392.76 Z M41.802,67.705 C55.911,67.632 66.933,56.47 66.937,42.251 C66.94,27.29 53.746,15.119 37.767,15.344 C24.65,15.528 13.151,27.029 13.03,40.085 C12.893,54.917 26.298,67.786 41.802,67.705 Z" id="path-1"></path>
    </defs>
    <g id="logo/monar" stroke="none" stroke-width="1" fill="none" fill-rule="evenodd">
        <mask id="mask-2" fill="white">
            <use xlink:href="#path-1"></use>
        </mask>
        <use id="Clip-2" fill-opacity="0.0822860054" fill="#000000" xlink:href="#path-1"></use>
    </g>
</svg>