<?xml version="1.0" encoding="UTF-8"?>
<svg width="807px" height="334px" viewBox="0 0 807 334" version="1.1" xmlns="http://www.w3.org/2000/svg" xmlns:xlink="http://www.w3.org/1999/xlink">
    <!-- Generator: Sketch 51.1 (57501) - http://www.bohemiancoding.com/sketch -->
    <title>logo/white</title>
    <desc>Created with Sketch.</desc>
    <defs></defs>
    <g id="logo/white" stroke="none" stroke-width="1" fill="none" fill-rule="evenodd">
        <path d="M757.75,159.892 C770.56,159.298 778.95,150.88 779.75,138.939 C780.53,127.452 774.08,119.37 760.96,117.015 C747.86,114.665 734.54,116.286 721.32,116.161 C718.85,116.138 718.72,118.058 718.72,119.899 C718.72,125.963 718.72,132.028 718.73,138.092 C718.73,144.156 718.78,150.221 718.71,156.284 C718.68,158.831 719.62,160.126 722.33,160.108 C734.14,160.033 745.96,160.439 757.75,159.892 Z M803.09,220.416 C804.33,222.162 806.99,223.959 805.9,226.043 C804.81,228.128 801.8,226.916 799.65,226.976 C794.7,227.113 789.74,226.863 784.79,227.071 C781.56,227.206 779.5,226.023 777.66,223.367 C768.72,210.505 759.53,197.823 750.62,184.944 C748.66,182.111 746.5,180.955 743.09,181.076 C736.71,181.302 730.3,181.314 723.92,181.077 C720.01,180.932 718.55,182.224 718.63,186.255 C718.84,197.12 718.72,207.992 718.71,218.861 C718.7,227.032 718.68,227.032 710.74,227.024 C707.71,227.021 704.65,226.781 701.64,227.071 C697.1,227.507 695.54,225.903 695.59,221.193 C695.83,201.056 695.69,180.914 695.69,160.775 C695.69,140.796 695.81,120.815 695.6,100.838 C695.55,96.251 696.91,94.769 701.55,94.826 C719.77,95.052 738,94.781 756.21,94.967 C765.57,95.062 774.65,96.923 783,101.389 C797.51,109.153 803.7,121.855 803.42,137.755 C803.12,154.59 795.29,166.967 779.84,174.201 C778.82,174.674 777.8,175.199 776.73,175.462 C773.02,176.372 772.59,177.808 774.95,181.029 C784.48,194.047 793.78,207.237 803.09,220.416 Z" id="Clip-15" fill="#FFFFFF"></path>
        <path d="M604.02,174.499 C591.71,174.384 579.41,174.437 567.11,174.466 C564.8,174.471 563.15,174.065 564.37,171.219 C571.16,155.387 577.96,139.56 584.75,123.731 C585.17,123.7 585.59,123.669 586.01,123.638 C590.21,133.252 594.42,142.861 598.59,152.482 C601.2,158.487 603.68,164.551 606.39,170.509 C607.65,173.27 607.54,174.533 604.02,174.499 Z M651.28,219.208 C634.6,180.987 618.02,142.721 601.16,104.58 C595.52,91.842 599.25,94.208 584.99,93.953 C583.39,93.925 581.77,94.127 580.2,93.934 C576.45,93.473 574.49,95.033 572.98,98.544 C563.47,120.711 553.73,142.778 544.06,164.88 C535.74,183.907 527.47,202.953 519.07,221.945 C517.48,225.541 517.76,227.275 522.23,227.069 C526.86,226.856 531.51,226.9 536.13,227.066 C539.45,227.185 541.41,226.007 542.7,222.814 C545.92,214.811 549.54,206.973 552.81,198.988 C553.91,196.289 555.38,194.854 558.43,194.866 C576.49,194.931 594.56,194.92 612.62,194.872 C615.36,194.866 617.02,195.85 618.06,198.513 C620.33,204.315 622.86,210.014 625.31,215.743 C631.07,229.208 627.8,226.741 641.95,227.019 C643.39,227.02 644.83,227.019 646.27,227.02 C654.67,227.021 654.69,227.013 651.28,219.208 Z" id="Fill-17" fill="#FFFFFF"></path>
        <path d="M452.03,184.351 C453.26,181.89 452.84,179.954 452.84,178.093 C452.87,152.355 452.95,126.617 452.76,100.881 C452.72,96.306 454.05,94.463 458.71,94.856 C462.36,95.164 466.08,95.186 469.73,94.85 C474.52,94.408 476.12,96.088 476.07,101.016 C475.83,122.915 475.97,144.818 475.97,166.718 C475.96,184.943 475.82,203.168 476.04,221.39 C476.1,225.924 474.47,227.112 470.21,227.105 C456.62,227.082 456.66,227.185 448.25,216.287 C428.33,190.482 408.38,164.7 388.38,138.95 C387.37,137.64 386.71,135.816 384.67,135.356 C383.38,136.914 384.02,138.736 384.01,140.388 C383.96,167.085 383.97,193.782 383.96,220.479 C383.96,226.988 383.95,226.993 377.23,227.025 C374.51,227.037 371.79,227.02 369.07,227.016 C360.883,227.003 360.858,227.003 360.854,218.594 C360.839,196.213 360.847,173.833 360.847,151.453 C360.847,134.508 360.962,117.561 360.771,100.618 C360.722,96.257 362.229,95.272 366.51,94.735 C378,93.291 385.31,97.409 392.25,107.027 C410.57,132.413 430.27,156.805 449.43,181.581 C450.09,182.442 450.92,183.176 452.03,184.351" id="Clip-9" fill="#FFFFFF"></path>
        <path d="M348.633,319.964 C337.419,320.06 327.226,310.406 327.284,299.744 C327.342,289.349 335.787,280.958 346.202,280.95 C357.847,280.941 367.47,290.037 367.48,301.057 C367.49,311.413 359.051,319.875 348.633,319.964 Z M289.788,160.798 C289.856,185.673 274.177,204.514 250.359,207.344 C233.725,209.322 220.05,202.81 210.02,189.268 C196.44,170.934 199.079,140.594 215.406,126.009 C241.922,102.322 281.39,115.749 288.776,150.972 C289.499,154.417 289.982,157.889 289.788,160.798 Z M201.246,298.281 C201.031,311.613 191.604,321.302 178.832,321.318 C165.782,321.334 156.463,311.591 156.436,297.904 C156.409,284.577 165.811,274.478 178.358,274.352 C191.067,274.226 201.459,285.09 201.246,298.281 Z M142.26,51.655 C130.497,51.716 120.326,41.953 120.43,30.7 C120.522,20.793 129.246,12.067 139.198,11.928 C151.321,11.757 161.332,20.991 161.33,32.342 C161.327,43.131 152.965,51.6 142.26,51.655 Z M377.04,296.42 C374.96,279.256 359.081,267.735 341.769,270.977 C338.591,271.573 336.488,271.041 334.373,268.322 C321.134,251.296 307.789,234.351 294.252,217.564 C291.469,214.112 291.578,212.193 294.797,209.008 C322.656,181.434 320.642,133.995 290.739,108.64 C268.473,89.76 234.817,87.397 208.641,102.923 C206.525,104.178 204.889,105.677 202.63,102.776 C190.361,87.018 177.97,71.355 165.5,55.756 C163.639,53.427 163.843,51.87 165.514,49.542 C171.05,41.828 172.371,33.082 170.426,23.951 C167.448,9.973 152.825,-0.255 138.045,0.991 C123.457,2.221 111.048,15.937 110.559,31.373 C109.948,50.673 127.872,65.63 147.138,61.839 C149.528,61.368 151.517,60.712 153.482,63.233 C166.059,79.358 178.784,95.367 191.501,111.381 C193.309,113.657 193.653,115.396 191.591,118.022 C167.385,148.85 172.563,191.553 203.441,215.657 C206.217,217.823 206.334,219.609 205.085,222.504 C200.277,233.656 195.66,244.888 190.945,256.079 C187.759,263.646 187.738,263.637 179.651,263.591 C158.523,263.47 143.922,277.66 143.938,298.301 C143.952,317.981 158.946,333.111 178.648,332.592 C193.406,332.203 204.718,325.545 210.935,311.708 C216.539,299.234 213.348,283.197 203.497,273.01 C201.93,271.389 200.299,270.268 201.54,267.394 C207.054,254.632 212.369,241.785 217.613,228.91 C218.916,225.715 220.65,225.129 223.915,226.074 C241.442,231.143 258.663,230.275 275.32,222.559 C278.235,221.208 279.846,221.854 281.747,224.288 C294.922,241.161 308.147,257.997 321.582,274.663 C324.46,278.234 325,280.692 322.32,284.937 C315.824,295.228 315.621,306.165 322.233,316.617 C328.266,326.149 337.461,330.837 348.534,330.541 C365.88,330.078 379.15,313.797 377.04,296.42 Z" id="Clip-12" fill="#FFFFFF"></path>
        <path d="M105.517,134.666 C94.057,151.773 82.588,168.874 71.141,185.991 C64.843,195.406 64.968,195.345 58.816,186.036 C48.159,169.909 37.358,153.878 26.59,137.825 C25.929,136.839 25.564,135.421 23.296,135.346 C23.296,138.65 23.296,141.93 23.296,145.211 C23.293,170.624 23.212,196.037 23.367,221.45 C23.393,225.549 22.296,227.359 17.989,227.076 C13.852,226.803 9.673,226.843 5.528,227.063 C1.575,227.273 0.168,225.688 0.209,221.757 C0.351,208.333 0.238,194.907 0.235,181.481 C0.232,154.629 0.317,127.777 0.155,100.927 C0.129,96.444 1.337,94.462 6.087,94.851 C12.275,95.359 19.188,93.046 24.528,95.781 C29.718,98.439 31.701,105.274 35.01,110.317 C44.212,124.346 53.281,138.463 62.24,152.648 C64.464,156.169 65.78,156.373 68.103,152.698 C79.025,135.411 90.275,118.33 101.084,100.974 C103.838,96.552 106.764,94.217 112.181,94.803 C116.763,95.298 121.441,94.999 126.074,94.891 C128.972,94.823 129.934,96.006 129.929,98.895 C129.861,139.972 129.852,181.048 129.936,222.124 C129.943,225.932 128.432,227.23 124.795,227.057 C120.808,226.868 116.782,226.759 112.815,227.095 C107.825,227.519 106.616,225.365 106.646,220.682 C106.813,193.831 106.704,166.98 106.689,140.128 C106.688,138.405 106.689,136.681 106.689,134.958 C106.298,134.861 105.907,134.763 105.517,134.666" id="Clip-6" fill="#FFFFFF"></path>
    </g>
</svg>