<?xml version="1.0" encoding="UTF-8"?>
<svg width="1174px" height="585px" viewBox="0 0 1174 585" version="1.1" xmlns="http://www.w3.org/2000/svg" xmlns:xlink="http://www.w3.org/1999/xlink">
    <!-- Generator: Sketch 50.2 (55047) - http://www.bohemiancoding.com/sketch -->
    <title>Group</title>
    <desc>Created with Sketch.</desc>
    <defs>
        <linearGradient x1="100%" y1="0%" x2="0%" y2="100%" id="linearGradient-1">
            <stop stop-color="#B2FF59" offset="0%"></stop>
            <stop stop-color="#8BC34A" offset="100%"></stop>
        </linearGradient>
        <linearGradient x1="83.1285508%" y1="12.0567965%" x2="17.199416%" y2="85.7408125%" id="linearGradient-2">
            <stop stop-color="#B2FF59" offset="0%"></stop>
            <stop stop-color="#8BC34A" offset="100%"></stop>
        </linearGradient>
    </defs>
    <g id="Page-1" stroke="none" stroke-width="1" fill="none" fill-rule="evenodd">
        <g id="Artboard" transform="translate(-373.000000, -228.000000)">
            <g id="Group" transform="translate(373.000000, 228.000000)">
                <path d="M59.7001953,584.251953 C22.9619141,584.251953 0.198242188,558.851562 0.198242188,517.542969 C0.198242188,476.322266 22.8740234,450.921875 59.7001953,450.921875 C89.7587891,450.921875 112.786133,470.873047 114.719727,498.470703 L88.8798828,498.470703 C86.3310547,483.880859 74.8173828,474.300781 59.7001953,474.300781 C39.7490234,474.300781 27.3564453,490.824219 27.3564453,517.542969 C27.3564453,544.261719 39.7490234,560.873047 59.7880859,560.873047 C74.9931641,560.873047 86.4189453,551.908203 88.9677734,537.933594 L114.807617,537.933594 C112.610352,565.355469 90.2861328,584.251953 59.7001953,584.251953 Z M216.760742,581 L207.180664,550.765625 L162.620117,550.765625 L152.864258,581 L126.233398,581 L170.266602,454.173828 L201.467773,454.173828 L245.500977,581 L216.760742,581 Z M184.241211,480.541016 L168.333008,530.287109 L201.555664,530.287109 L185.823242,480.541016 L184.241211,480.541016 Z M292.522461,581 L267.12207,581 L267.12207,454.173828 L289.270508,454.173828 L347.629883,533.1875 L349.211914,533.1875 L349.211914,454.173828 L374.612305,454.173828 L374.612305,581 L352.639648,581 L294.104492,501.634766 L292.522461,501.634766 L292.522461,581 Z M431.916992,581 L405.374023,581 L405.374023,454.173828 L431.916992,454.173828 L431.916992,581 Z M518.137695,450.921875 C555.579102,450.921875 579.045898,476.498047 579.045898,517.542969 C579.045898,558.675781 555.666992,584.251953 518.137695,584.251953 C480.520508,584.251953 457.053711,558.675781 457.053711,517.542969 C457.053711,476.410156 480.87207,450.921875 518.137695,450.921875 Z M518.137695,474.212891 C497.571289,474.212891 484.211914,491 484.211914,517.542969 C484.211914,543.998047 497.307617,560.960938 518.137695,560.960938 C538.791992,560.960938 551.975586,543.998047 551.975586,517.542969 C551.975586,491 538.791992,474.212891 518.137695,474.212891 Z M629.583008,581 L604.182617,581 L604.182617,454.173828 L626.331055,454.173828 L684.69043,533.1875 L686.272461,533.1875 L686.272461,454.173828 L711.672852,454.173828 L711.672852,581 L689.700195,581 L631.165039,501.634766 L629.583008,501.634766 L629.583008,581 Z" id="CANIONLABS" fill="url(#linearGradient-1)"></path>
                <polygon id="Path" fill="#FFFFFF" points="820.217773 566.761719 820.217773 581 743.225586 581 743.225586 454.173828 759.045898 454.173828 759.045898 566.761719"></polygon>
                <path d="M927.883789,581 L915.139648,544.701172 L864.69043,544.701172 L851.946289,581 L835.334961,581 L882.092773,454.173828 L897.737305,454.173828 L944.495117,581 L927.883789,581 Z M889.211914,474.652344 L869.348633,531.253906 L910.481445,531.253906 L890.618164,474.652344 L889.211914,474.652344 Z" id="Combined-Shape" fill="#FFFFFF"></path>
                <path d="M1016.21387,581 L966.731445,581 L966.731445,454.173828 L1015.24707,454.173828 C1038.53809,454.173828 1052.77637,466.390625 1052.77637,485.814453 C1052.77637,498.998047 1043.1084,510.951172 1030.8916,513.148438 L1030.8916,514.554688 C1048.20605,516.751953 1059.19238,528.617188 1059.19238,545.404297 C1059.19238,567.728516 1043.19629,581 1016.21387,581 Z M982.551758,468.148438 L982.551758,508.841797 L1007.86426,508.841797 C1027.02441,508.841797 1036.78027,501.986328 1036.78027,488.539062 C1036.78027,475.619141 1027.63965,468.148438 1011.90723,468.148438 L982.551758,468.148438 Z M982.551758,567.025391 L1013.84082,567.025391 C1032.91309,567.025391 1042.93262,559.291016 1042.93262,544.613281 C1042.93262,529.935547 1032.56152,522.464844 1012.34668,522.464844 L982.551758,522.464844 L982.551758,567.025391 Z" id="Combined-Shape" fill="#FFFFFF"></path>
                <path d="M1078.96777,547.865234 L1094.96387,547.865234 C1096.89746,561.136719 1109.55371,569.574219 1127.57129,569.574219 C1144.62207,569.574219 1157.19043,560.345703 1157.19043,547.777344 C1157.19043,536.966797 1149.28027,530.111328 1131.79004,525.716797 L1115.53027,521.498047 C1092.59082,515.697266 1082.65918,505.326172 1082.65918,487.308594 C1082.65918,465.775391 1100.67676,451.185547 1127.4834,451.185547 C1152.00488,451.185547 1170.28613,465.775391 1171.60449,486.253906 L1155.69629,486.253906 C1153.49902,473.246094 1142.77637,465.511719 1126.95605,465.511719 C1110.08105,465.511719 1098.91895,473.949219 1098.91895,486.78125 C1098.91895,496.712891 1105.8623,502.425781 1123.35254,506.908203 L1136.62402,510.423828 C1162.90332,517.015625 1173.4502,527.210938 1173.4502,545.84375 C1173.4502,569.134766 1155.08105,583.988281 1126.07715,583.988281 C1099.18262,583.988281 1080.6377,569.75 1078.96777,547.865234 Z" id="Path" fill="#FFFFFF"></path>
                <path d="M708.997372,134.369295 C707.92024,133.137229 706.689882,131.559213 705.289609,130.152654 C695.308688,120.1277 685.124476,110.298481 675.371118,100.05655 C671.450963,95.9400521 668.899221,96.0189529 664.969963,100.067171 C651.250937,114.204071 637.176912,127.999573 623.275835,141.963497 C611.692868,153.599848 612.912607,150.056899 622.93449,161.376129 C627.892333,166.975052 632.147765,167.105541 638.551393,163.817502 C660.089491,152.763803 681.362098,140.848265 705.873688,137.26283 C707.296717,137.054957 709.077778,137.086821 708.997372,134.369295 M525.875972,192.956033 C530.151699,192.497208 534.428946,192.038383 538.704673,191.57652 C562.956085,188.960306 586.72566,184.1077 609.779322,176.040281 C613.351294,174.789907 617.838299,173.847948 612.6293,168.682369 C590.153234,146.388338 567.774447,123.995553 545.49294,101.508572 C541.884488,97.8683576 539.276188,98.3742804 536.067493,101.836738 C531.765926,106.476643 527.155802,110.829403 522.677917,115.306745 C504.416778,133.576182 486.13892,151.831947 467.921861,170.146963 C466.599472,171.477859 464.319489,172.600613 465.195002,175.063379 C465.684439,176.442892 467.298666,176.214999 468.519217,176.348696 C485.587164,178.225017 501.519681,183.939059 517.15124,190.689255 C519.935858,191.891012 522.690077,193.264448 525.875972,192.956033 M550,204.97818 C551.46145,207.795515 553.953799,207.977965 555.933731,208.785307 C581.108882,219.035967 607.208809,225.788144 634.178936,229.00839 C644.89725,230.288582 655.715621,233.559002 666.447579,231.120251 C680.270716,227.979067 693.417706,222.542051 705.653563,215.251646 C727.055321,202.498378 741.456065,185.950146 737.277894,158.506596 C736.351601,152.431005 734.762804,150.360195 728.692631,150.100204 C706.310003,149.146902 685.758735,155.052206 666.167114,165.398652 C640.415873,179.000314 614.100669,191.289854 585.529618,197.801806 C573.825886,200.47014 561.994809,202.574399 550,204.97818 M620,240.627511 C583.430832,234.131868 549.178605,220.840294 515.657247,205.229822 C493.229309,194.784925 469.95678,187.810033 444.757004,189.168916 C439.354344,189.461622 437.034369,191.164776 437.160224,196.774718 C437.419515,208.382855 437.792531,220.033457 437.122316,231.609745 C435.518046,259.234805 449.807876,276.079798 473.32605,287.163188 C475.671802,288.268797 477.464096,288.45989 479.470192,286.618725 C500.374225,267.435118 526.371587,259.431965 553.207476,253.668845 C575.382188,248.905171 597.728244,244.943785 620,240.627511 M735.767389,209 C727.212383,217.035465 718.325951,223.562474 708.542099,228.947864 C691.808912,238.156912 673.827205,243.810202 655.396032,248.213802 C624.26174,255.652582 592.455519,259.593446 561.213779,266.447717 C537.768854,271.591085 514.626601,277.603604 494.703257,292.144768 C489.668319,295.819254 489.694046,297.910697 495.231419,301.06004 C518.028627,314.033381 540.49441,327.607975 563.383933,340.412358 C578.768719,349.020154 595.013092,349.300231 610.372151,340.616327 C644.622444,321.249927 678.559472,301.329461 712.544928,281.494237 C725.245019,274.082856 733.333911,262.719956 735.838517,248.396461 C738.093419,235.50836 736.498341,222.296039 735.767389,209 M437.196581,142.401517 L437.25418,142.401517 C437.25418,151.529386 437.119277,160.658777 437.302685,169.782078 C437.419399,175.513637 440.652529,176.195639 444.83756,173.418916 C447.115756,171.907246 448.939223,169.681605 450.903657,167.713237 C477.70089,140.842655 504.476903,113.950761 531.283232,87.0893127 C539.380456,78.9737911 540.709783,79.0072823 548.98132,87.2963491 C563.278028,101.622962 577.550484,115.973932 591.835067,130.311202 C604.152184,142.670969 603.756569,142.288865 616.05095,129.314078 C630.982765,113.554956 646.51937,98.3606168 662.107512,83.2469611 C668.752631,76.8029538 670.704938,77.1424325 677.204545,83.6214534 C691.536116,97.9115305 705.772194,112.297514 720.070418,126.622605 C722.569916,129.128354 724.931481,131.870064 727.781121,133.902369 C732.422398,137.216474 736.372485,135.442964 736.771132,130.028049 C738.436959,107.410847 731.132481,89.2814626 710.806054,77.5291034 C677.342479,58.1818582 644.180543,38.3002765 610.453225,19.4340864 C595.532021,11.0871711 579.257237,10.6746207 564.061679,19.2940323 C529.120233,39.1101541 494.359163,59.2505313 459.763311,79.6710166 C445.462055,88.1138383 438.544098,101.729525 437.302685,118.070176 C436.690315,126.135461 437.196581,134.287518 437.196581,142.401517 M750.060151,137.688127 C751.011987,171.649207 751.425762,205.608765 750.410269,239.578982 C749.717611,262.791709 739.600566,280.588387 719.883316,292.306666 C686.194691,312.327929 652.325703,332.052276 618.244522,351.391394 C597.7558,363.018313 576.606249,362.805143 556.128137,351.131021 C523.843015,332.725285 491.988342,313.550613 459.612281,295.315413 C435.969466,281.99988 424.004829,262.091292 424.006344,235.199854 C424.010891,194.866503 423.815371,154.502699 425.287079,114.208936 C425.997924,94.7129859 436.437806,78.8759522 453.379878,68.8280159 C488.603869,47.9357998 523.893032,27.1151481 559.746022,7.3481669 C578.705441,-3.10479305 598.930438,-2.13943593 617.838325,8.55105668 C651.50573,27.5856455 684.965489,47.0024183 718.287323,66.6430199 C739.309559,79.0327847 750.419363,97.55881 750.07076,122.463196 C749.999524,127.536651 750.060151,132.61315 750.060151,137.688127" id="Fill-1" fill="url(#linearGradient-2)"></path>
            </g>
        </g>
    </g>
</svg>