<?xml version="1.0" encoding="UTF-8"?>
<svg width="40px" height="40px" viewBox="0 0 40 40" version="1.1" xmlns="http://www.w3.org/2000/svg" xmlns:xlink="http://www.w3.org/1999/xlink">
    <!-- Generator: Sketch 51.1 (57501) - http://www.bohemiancoding.com/sketch -->
    <title>Icons/Instagram/White</title>
    <desc>Created with Sketch.</desc>
    <defs></defs>
    <g id="Icons/Instagram/White" stroke="none" stroke-width="1" fill="none" fill-rule="evenodd">
        <g id="Instagram" fill="#FFFFFF">
            <path d="M0,20 C0,8.95430446 8.95430446,0 20,0 C31.0456955,0 40,8.95430446 40,20 C40,31.0456955 31.0456955,40 20,40 C8.95430446,40 0,31.0456955 0,20 Z M20.001,9.33333333 C17.1040809,9.33333333 16.7405216,9.34600013 15.602732,9.39777845 C14.4671646,9.44977899 13.6920454,9.62955864 13.0138161,9.89333917 C12.3122533,10.1657864 11.7171359,10.5302347 11.1242409,11.123352 C10.5309014,11.716247 10.1664531,12.3113644 9.89311694,13.012705 C9.62866974,13.6911565 9.44866787,14.4664979 9.39755622,15.6016209 C9.34666681,16.7394105 9.33333333,17.103192 9.33333333,20.0001111 C9.33333333,22.8970302 9.34622236,23.2594784 9.39777845,24.397268 C9.45000122,25.5328354 9.62978087,26.3079546 9.89333917,26.9861839 C10.1660087,27.6877467 10.5304569,28.2828641 11.1235742,28.8757591 C11.716247,29.4690986 12.3113644,29.8344358 13.0124828,30.1068831 C13.6911565,30.3706636 14.4664979,30.5504432 15.6018431,30.6024438 C16.7396327,30.6542221 17.1029698,30.6668889 19.9996667,30.6668889 C22.896808,30.6668889 23.2592562,30.6542221 24.3970458,30.6024438 C25.5326132,30.5504432 26.3086213,30.3706636 26.987295,30.1068831 C27.6886356,29.8344358 28.2828641,29.4690986 28.8755369,28.8757591 C29.4688764,28.2828641 29.8333247,27.6877467 30.1066608,26.9864061 C30.3688858,26.3079546 30.5488877,25.5326132 30.6022216,24.3974903 C30.6533332,23.2597006 30.6666667,22.8970302 30.6666667,20.0001111 C30.6666667,17.103192 30.6533332,16.7396327 30.6022216,15.6018431 C30.5488877,14.4662757 30.3688858,13.6911565 30.1066608,13.0129272 C29.8333247,12.3113644 29.4688764,11.716247 28.8755369,11.123352 C28.2821974,10.5300125 27.6888579,10.1655642 26.9866283,9.89333917 C26.3066212,9.62955864 25.5310576,9.44977899 24.3954902,9.39777845 C23.2577006,9.34600013 22.8954746,9.33333333 19.9976666,9.33333333 L20.001,9.33333333 Z" id="Combined-Shape"></path>
            <path d="M19.0441012,11.2555756 C19.3281041,11.2551311 19.6449963,11.2555756 20.001,11.2555756 C22.8490297,11.2555756 23.1865887,11.2657979 24.3112671,11.3169096 C25.351278,11.3644656 25.9157283,11.5382452 26.2917322,11.6842467 C26.7895152,11.8775821 27.1444078,12.1086956 27.5175228,12.4820328 C27.89086,12.85537 28.1219735,13.2109293 28.3157533,13.7087122 C28.4617548,14.0842717 28.6357566,14.648722 28.6830904,15.6887329 C28.7342021,16.813189 28.7453133,17.1509703 28.7453133,19.9976666 C28.7453133,22.844363 28.7342021,23.1821443 28.6830904,24.3066004 C28.6355344,25.3466112 28.4617548,25.9110616 28.3157533,26.286621 C28.1224179,26.784404 27.89086,27.1388521 27.5175228,27.5119671 C27.1441855,27.8853044 26.7897374,28.1164179 26.2917322,28.3097532 C25.9161727,28.4564214 25.351278,28.6297566 24.3112671,28.6773126 C23.186811,28.7284243 22.8490297,28.7395355 20.001,28.7395355 C17.1527481,28.7395355 16.815189,28.7284243 15.6907329,28.6773126 C14.6507221,28.6293121 14.0862717,28.4555325 13.7100456,28.309531 C13.2122626,28.1161957 12.8567034,27.8850821 12.4833661,27.5117449 C12.1100289,27.1384077 11.8789154,26.7837373 11.6851356,26.2857321 C11.5391341,25.9101727 11.3651323,25.3457224 11.3177984,24.3057115 C11.2666868,23.1812554 11.2564645,22.8434741 11.2564645,19.9949999 C11.2564645,17.1465258 11.2666868,16.8105223 11.3177984,15.6860662 C11.3653545,14.6460553 11.5391341,14.081605 11.6851356,13.7056011 C11.878471,13.2078181 12.1100289,12.8522589 12.4833661,12.4789217 C12.8567034,12.1055844 13.2122626,11.8744709 13.7100456,11.6806911 C14.0860495,11.5340229 14.6507221,11.3606878 15.6907329,11.3129095 C16.6747431,11.2684646 17.0560804,11.2551311 19.0441012,11.2529089 L19.0441012,11.2555756 Z M25.6948371,13.0267051 C24.9881631,13.0267051 24.4148238,13.5993778 24.4148238,14.306274 C24.4148238,15.0129481 24.9881631,15.5862874 25.6948371,15.5862874 C26.4015111,15.5862874 26.9748504,15.0129481 26.9748504,14.306274 C26.9748504,13.5996 26.4015111,13.0262607 25.6948371,13.0262607 L25.6948371,13.0267051 Z M20.001,14.5222763 C16.9758574,14.5222763 14.5231652,16.9749685 14.5231652,20.0001111 C14.5231652,23.0252537 16.9758574,25.4768348 20.001,25.4768348 C23.0261426,25.4768348 25.477946,23.0252537 25.477946,20.0001111 C25.477946,16.9749685 23.0259204,14.5222763 20.0007778,14.5222763 L20.001,14.5222763 Z" id="Combined-Shape"></path>
            <path d="M20.001,16.4445185 C21.964576,16.4445185 23.5565926,18.0363129 23.5565926,20.0001111 C23.5565926,21.9636871 21.964576,23.5557037 20.001,23.5557037 C18.0372018,23.5557037 16.4454074,21.9636871 16.4454074,20.0001111 C16.4454074,18.0363129 18.0372018,16.4445185 20.001,16.4445185 L20.001,16.4445185 Z" id="Shape"></path>
        </g>
    </g>
</svg>